<?xml version="1.0" encoding="UTF-8"?>
<svg version="1.1" xmlns="http://www.w3.org/2000/svg" width="512" height="512">
<path d="M0 0 C0.81919922 0.37447266 1.63839844 0.74894531 2.48242188 1.13476562 C7.666341 3.62388631 10.97730388 6.00046159 14.1875 10.8125 C14.1875 11.8025 14.1875 12.7925 14.1875 13.8125 C15.91869331 13.99930328 15.91869331 13.99930328 17.68486023 14.18988037 C21.97121787 14.7284839 26.05815264 15.67053469 30.22973633 16.77441406 C30.99042419 16.97135361 31.75111206 17.16829315 32.53485107 17.37120056 C35.03101705 18.0187229 37.52525566 18.67336225 40.01953125 19.328125 C41.7785077 19.78597601 43.53759903 20.24338585 45.29679871 20.70037842 C49.92499397 21.9039511 54.55157901 23.11360366 59.17785645 24.32452393 C63.82267028 25.53911893 68.4690279 26.7477768 73.11523438 27.95703125 C79.18487746 29.53764056 85.25451014 31.11829111 91.32220364 32.70637131 C92.91348243 33.12190033 94.50533535 33.53523732 96.09777164 33.94630814 C100.10552961 34.98466744 104.09312633 36.06604751 108.06704712 37.22766113 C118.25401899 40.15943554 127.07032961 41.47157937 137.734375 41.125 C139.12855605 41.10283521 140.52278968 41.08379035 141.91705322 41.06762695 C146.25798488 41.01163314 150.59746009 40.91539905 154.9375 40.8125 C159.99569082 40.69300079 165.05305313 40.59166829 170.11234283 40.5328064 C172.09705521 40.50119181 174.08119467 40.43833856 176.06512451 40.37426758 C192.72776301 40.15213157 207.09600083 46.62943124 219.34765625 57.87890625 C233.06904127 72.29947013 236.67893125 89.88176885 236.29296875 109.11328125 C236.25816406 110.33402344 236.22335937 111.55476563 236.1875 112.8125 C237.06825195 112.57345947 237.06825195 112.57345947 237.96679688 112.32958984 C241.21059637 111.57427242 244.36166333 111.52260999 247.6875 111.4375 C248.9971875 111.38851562 250.306875 111.33953125 251.65625 111.2890625 C255.1875 111.8125 255.1875 111.8125 257.5546875 113.76171875 C259.7169752 117.80178261 260.26789417 121.48681131 260.8125 126 C260.93020752 126.88059082 261.04791504 127.76118164 261.16918945 128.66845703 C261.52560251 131.38127786 261.85759253 134.09634452 262.1875 136.8125 C262.39667507 138.42063286 262.60628938 140.02870867 262.81640625 141.63671875 C265.93771559 166.40488636 265.93771559 166.40488636 262.5859375 171.015625 C204.37105017 214.62938424 65.60615881 201.67582785 -2.2197876 200.84246826 C-4.81365979 200.81248659 -7.40750112 200.7904184 -10.00146484 200.77001953 C-14.04872206 200.73578366 -18.09499715 200.67896447 -22.1416626 200.60195923 C-23.60865 200.57604009 -25.07575487 200.55597956 -26.54290771 200.54232788 C-28.53020163 200.52130278 -30.51714127 200.47231385 -32.50390625 200.421875 C-33.60935791 200.40092773 -34.71480957 200.37998047 -35.85375977 200.35839844 C-39.494259 199.68671296 -41.19549068 198.38906141 -43.8125 195.8125 C-44.74609375 193.11328125 -44.74609375 193.11328125 -45.25 190.125 C-47.19347972 181.26057304 -51.29097586 175.11774099 -58.8359375 170.03125 C-66.64116574 165.21854009 -73.64659039 164.69108942 -82.8125 165.8125 C-90.79936667 168.32160771 -97.38229511 172.63128078 -101.8125 179.8125 C-103.20856859 182.89875276 -104.44925232 185.98087657 -105.57421875 189.17578125 C-106.98496528 192.17973679 -107.99663653 193.11639537 -110.8125 194.8125 C-113.25844765 195.14252186 -113.25844765 195.14252186 -115.93862915 195.06587219 C-116.91178699 195.03827127 -117.88494484 195.01067036 -118.88759232 194.98223305 C-123.2152108 194.73110038 -127.49444734 194.30217393 -131.79443359 193.75854492 C-132.7243512 193.64632095 -133.6542688 193.53409698 -134.61236572 193.41847229 C-137.64612472 193.05028533 -140.67854212 192.67221116 -143.7109375 192.29296875 C-145.83555063 192.03086261 -147.96019513 191.76901072 -150.08486938 191.50740051 C-154.51827701 190.95973687 -158.95098071 190.40673547 -163.38330078 189.8503418 C-169.06109298 189.13837213 -174.74082021 188.44336137 -180.42123985 187.7527113 C-184.80084322 187.21772708 -189.17906557 186.6720544 -193.55696487 186.12331581 C-195.65126388 185.86245774 -197.74603171 185.60533524 -199.841259 185.35204124 C-202.764669 184.99736085 -205.68584524 184.62789383 -208.60693359 184.25463867 C-209.46934662 184.15321564 -210.33175964 184.0517926 -211.2203064 183.94729614 C-215.72364917 183.35476748 -219.11686175 182.66699248 -222.8125 179.8125 C-226.85567409 171.72615183 -223.3865548 157.56554048 -222.45703125 148.83984375 C-222.31205934 147.45935655 -222.16709594 146.07886845 -222.0221405 144.69837952 C-221.71931058 141.83643899 -221.40973792 138.97531364 -221.09643555 136.11450195 C-220.69755858 132.45836902 -220.32638021 128.79995844 -219.96121693 125.1403265 C-219.67312214 122.30160498 -219.36535186 119.4652653 -219.05216026 116.62921333 C-218.83629404 114.6293361 -218.64105717 112.62726653 -218.44624329 110.62522888 C-217.29186466 100.58408537 -217.29186466 100.58408537 -214.42651367 97.48120117 C-207.42454804 93.01137441 -197.24798999 96.63559745 -189.55255127 98.0340271 C-153.27403843 104.56842968 -116.57094863 108.32852659 -79.8125 110.8125 C-77.1725 104.8725 -74.5325 98.9325 -71.8125 92.8125 C-73.17503906 92.71839844 -74.53757813 92.62429687 -75.94140625 92.52734375 C-82.72537307 91.84025425 -89.17836663 90.14607245 -95.75 88.375 C-96.40078522 88.20021118 -97.05157043 88.02542236 -97.72207642 87.84533691 C-126.50267572 80.06048877 -153.85443595 68.13765078 -180.3125 54.5 C-181.94928711 53.65646973 -181.94928711 53.65646973 -183.61914062 52.79589844 C-205.14222894 41.50259175 -205.14222894 41.50259175 -210.125 31.0625 C-211.83906588 22.95964312 -211.47853686 16.32859051 -207.359375 9.0390625 C-203.23508455 3.10258383 -197.87429519 -0.59332609 -190.8125 -2.1875 C-178.98867008 -3.92251852 -168.66865965 3.38777276 -158.75 8.875 C-133.13273075 22.83418459 -106.07689605 34.19350199 -77.75 41.375 C-76.80568115 41.61452393 -75.8613623 41.85404785 -74.88842773 42.10083008 C-70.33742184 43.18711015 -65.76460146 44.07650924 -61.12890625 44.71484375 C-60.2994751 44.83206787 -59.47004395 44.94929199 -58.61547852 45.07006836 C-54.42397427 44.68490705 -51.19435048 43.32148194 -47.8125 40.8125 C-45.94619818 38.39475615 -44.82531532 35.82763739 -43.671875 33.01171875 C-43.33754456 32.25711868 -43.00321411 31.50251862 -42.65875244 30.72505188 C-41.60189767 28.32662945 -40.58142166 25.91474775 -39.5625 23.5 C-38.52175612 21.09986294 -37.47374098 18.7030344 -36.42340088 16.30708313 C-35.77497127 14.82096853 -35.13335543 13.33185451 -34.49993896 11.83927917 C-28.62359536 -1.88818051 -28.62359536 -1.88818051 -22.17651367 -4.50317383 C-14.47397532 -6.73287692 -6.8372425 -3.36628136 0 0 Z " fill="#000100" transform="translate(235.8125,158.1875)"/>
<path d="M0 0 C10.32166874 0.93497834 20.52776577 2.18613688 30.75 3.90234375 C44.75354388 6.22736427 58.81937655 7.82945799 72.93066025 9.34068298 C75.03917878 9.56669966 77.14748564 9.79461714 79.25576782 10.02282715 C102.4743998 12.53035572 125.68450873 14.63684455 149 16 C150.05993164 16.06231812 151.11986328 16.12463623 152.21191406 16.18884277 C162.81172556 16.81033871 173.41213071 17.4209184 184.0144043 17.99902344 C185.10422607 18.05857208 186.19404785 18.11812073 187.31689453 18.17947388 C189.33774739 18.289402 191.35865719 18.39829137 193.37963867 18.50582886 C198.42594515 18.7797209 203.4611176 19.11185218 208.49951172 19.50610352 C217.50119058 20.15729744 226.50652374 20.35562526 235.52734375 20.55078125 C236.91455281 20.58200294 236.91455281 20.58200294 238.3297863 20.61385536 C258.4912531 21.06135862 278.65023104 21.18754038 298.81616211 21.18530273 C302.6488922 21.18522129 306.48150318 21.19222631 310.31420898 21.20581055 C331.08398909 21.27806902 351.80233281 21.0962696 372.55078125 20.0859375 C373.81091128 20.0247149 373.81091128 20.0247149 375.09649849 19.96225548 C390.62184648 19.18906465 406.11366007 17.99788243 421.6015625 16.68359375 C429.72747148 15.99912764 437.85932031 15.47396724 446 15 C446.51214451 18.28989285 447.00740064 21.58212862 447.5 24.875 C447.64308594 25.7928125 447.78617187 26.710625 447.93359375 27.65625 C448.84489671 33.81839384 449.18278149 39.77358238 449 46 C419.24500164 59.50694185 381.86709129 61.94212012 349.66113281 64.68505859 C346.42410515 64.96351723 343.18971797 65.26318349 339.95527649 65.56999207 C284.08694121 70.83008595 228.04998557 70.26219364 172 70 C171.80043198 69.38131042 171.60086395 68.76262085 171.39524841 68.12518311 C170.99741905 66.9083786 170.99741905 66.9083786 170.59155273 65.66699219 C170.1993882 64.46052032 170.1993882 64.46052032 169.79930115 63.22967529 C168.86597323 60.62612818 167.66002661 58.50433463 166.0625 56.25 C165.57910156 55.55390625 165.09570312 54.8578125 164.59765625 54.140625 C164.07042969 53.43421875 163.54320312 52.7278125 163 52 C162.38125 51.16082031 161.7625 50.32164062 161.125 49.45703125 C154.93354325 42.29815938 145.8252974 38.77281303 137 36 C136.01 35.67 135.02 35.34 134 35 C119.24031435 33.99012677 105.99199304 37.0512471 94.375 46.5 C88.95833902 51.52079093 85.63328404 57.64439009 82 64 C72.42057784 63.4178907 62.97025234 62.45672185 53.45703125 61.1875 C52.11339173 61.01154597 50.76969631 60.83601832 49.4259491 60.66088867 C45.92985133 60.20439416 42.43435484 59.74346824 38.93902588 59.28112793 C33.33787972 58.54065322 27.73603092 57.80557294 22.13379478 57.07339478 C20.20227798 56.82007357 18.27115315 56.56376916 16.34004211 56.30737305 C9.23653428 55.37513359 2.14120371 54.57994061 -5 54 C-4.36992692 41.94972091 -3.24150993 29.99368569 -1.9375 18 C-1.74902749 16.24222194 -1.56087476 14.48440956 -1.37304688 12.7265625 C-0.91903434 8.48397202 -0.46075195 4.24186363 0 0 Z " fill="#007F73" transform="translate(34,272)"/>
<path d="M0 0 C8.62455835 1.24875202 16.99451837 3.48877916 25.3359375 5.96484375 C29.36715195 7.1037263 33.41729937 8.06737323 37.5 9 C42.71551821 10.19393489 47.86360014 11.4920661 53 13 C58.05464752 14.48292741 63.11748349 15.76467187 68.25 16.9375 C75.00120759 18.48074301 81.6687917 20.2368439 88.32128906 22.16186523 C90.54190269 22.79718709 92.7696305 23.3997585 95 24 C95.91391006 24.25454453 96.82782013 24.50908905 97.76942444 24.77134705 C106.27944054 26.96294031 114.1611997 27.35500483 122.91796875 27.1875 C124.31031224 27.1742325 125.70267423 27.16279662 127.095047 27.15307617 C131.45947073 27.11922676 135.82338942 27.06147483 140.1875 27 C145.26422665 26.92867605 150.34066611 26.86772399 155.41777992 26.83218384 C157.42623637 26.81301753 159.4344888 26.77529591 161.44267273 26.73706055 C174.83315102 26.62992845 185.80064303 29.9785113 195.75 39.25 C205.18870836 49.33428039 208.50248243 59.99613774 208.1875 73.5 C208.17396484 74.60859375 208.16042969 75.7171875 208.14648438 76.859375 C208.11138881 79.57343232 208.0622227 82.28645193 208 85 C205.40676345 86.29661828 203.31619138 86.28135518 200.4140625 86.46484375 C199.20435791 86.5417041 197.99465332 86.61856445 196.74829102 86.69775391 C195.3739199 86.77868143 193.99948609 86.85854925 192.625 86.9375 C191.90255096 86.97913269 191.18010193 87.02076538 190.4357605 87.06365967 C185.50569661 87.34404559 180.57478193 87.60588812 175.64337158 87.86138916 C173.02614349 87.99862911 170.40932084 88.14219602 167.79248047 88.28662109 C137.99416864 89.9010302 108.21029772 90.21318128 78.37549973 90.2458725 C75.49732 90.24991596 72.61916763 90.25740273 69.74099731 90.26568604 C33.42001554 90.35682235 -2.80222657 89.06035274 -39 86 C-38.64086914 83.60131836 -38.64086914 83.60131836 -38 81 C-35.74609375 79.37890625 -35.74609375 79.37890625 -33 78 C-23.3054907 72.20787638 -17.71639417 65.24137042 -14.46484375 54.3515625 C-13.30929733 48.50585708 -13.35530299 42.96974848 -15.20947266 37.3046875 C-16.38668953 32.64578946 -15.08039308 29.42058938 -12.94921875 25.25390625 C-12.61581985 24.55732407 -12.28242096 23.86074188 -11.93891907 23.14305115 C-10.87689714 20.93814723 -9.78283967 18.75101034 -8.6875 16.5625 C-7.96207255 15.06678164 -7.23874278 13.57004397 -6.51757812 12.07226562 C-1.29427003 1.29427003 -1.29427003 1.29427003 0 0 Z " fill="#53A76B" transform="translate(247,188)"/>
<path d="M0 0 C3.83586087 1.64148061 7.3923496 3.72425906 11 5.8125 C13.15913393 7.01849384 15.32065194 8.22022797 17.484375 9.41796875 C19.12116211 10.32554932 19.12116211 10.32554932 20.79101562 11.25146484 C49.26739624 26.76788587 80.88841294 39.67343343 113 45 C112.38027446 48.80768303 111.7038863 52.59416092 110.9375 56.375 C110.76089844 57.24898437 110.58429688 58.12296875 110.40234375 59.0234375 C110.26957031 59.67570312 110.13679688 60.32796875 110 61 C75.37795261 58.52699662 14.172389 37.172389 -11 12 C-11.67039106 5.0726257 -11.67039106 5.0726257 -9.4375 1.5 C-6.18360681 -0.50239581 -3.67385106 -0.70085261 0 0 Z " fill="#007D72" transform="translate(53,173)"/>
<path d="M0 0 C6.23101945 3.37164281 10.06535866 7.20981557 12.36328125 13.9765625 C13.67725812 20.1558051 11.63302324 25.72090359 8.36328125 30.9765625 C4.95797054 34.72786735 0.86771678 37.68526109 -4.22265625 38.27734375 C-10.67966243 38.30447403 -15.40651376 38.12893122 -20.2578125 33.39453125 C-25.34019335 27.80025593 -27.19256399 23.13456258 -27.01171875 15.5390625 C-26.26432223 10.43185297 -23.67925488 6.77327919 -19.8515625 3.40625 C-13.64578583 -1.20526133 -7.33500909 -2.84707019 0 0 Z " fill="#52A66A" transform="translate(205.63671875,216.0234375)"/>
<path d="M0 0 C3.71868929 1.22166327 7.31078896 2.50490407 10.875 4.125 C11.65617187 4.47820312 12.43734375 4.83140625 13.2421875 5.1953125 C13.82226562 5.46085938 14.40234375 5.72640625 15 6 C14.36198493 10.08924686 13.02839818 13.43405441 11.27734375 17.17578125 C10.73916016 18.33271484 10.20097656 19.48964844 9.64648438 20.68164062 C9.07694064 21.89198249 8.50727769 23.10226826 7.9375 24.3125 C7.36343439 25.54208537 6.7898615 26.77190091 6.21679688 28.00195312 C4.81602767 31.00360143 3.41027491 34.00280905 2 37 C-2.66666667 34.66666667 -7.33333333 32.33333333 -12 30 C-11.35990983 26.03526237 -10.1301723 22.7055586 -8.49609375 19.04296875 C-8.00302734 17.93115234 -7.50996094 16.81933594 -7.00195312 15.67382812 C-6.48568359 14.52333984 -5.96941406 13.37285156 -5.4375 12.1875 C-4.91736328 11.01767578 -4.39722656 9.84785156 -3.86132812 8.64257812 C-2.57872888 5.75967157 -1.29147717 2.87893769 0 0 Z " fill="#007C71" transform="translate(219,170)"/>
<path d="M0 0 C15.22150582 0.34650582 15.22150582 0.34650582 17.0625 2.1875 C17.1875 5.1875 17.1875 5.1875 17.0625 8.1875 C14.83014991 10.41985009 9.68556334 9.37281482 6.6875 9.375 C5.8109375 9.38724609 4.934375 9.39949219 4.03125 9.41210938 C3.18820312 9.41404297 2.34515625 9.41597656 1.4765625 9.41796875 C0.7026416 9.42207764 -0.0712793 9.42618652 -0.86865234 9.43041992 C-2.9375 9.1875 -2.9375 9.1875 -5.9375 7.1875 C-6.25 4.6875 -6.25 4.6875 -5.9375 2.1875 C-3.9375 0.1875 -3.9375 0.1875 0 0 Z " fill="#050B07" transform="translate(284.9375,247.8125)"/>
<path d="M0 0 C16.20879709 0.03692209 16.20879709 0.03692209 18.3046875 2.1328125 C18.4296875 5.1328125 18.4296875 5.1328125 18.3046875 8.1328125 C17.3046875 9.1328125 17.3046875 9.1328125 14.609375 9.265625 C-1.59942209 9.22870291 -1.59942209 9.22870291 -4.6953125 6.1328125 C-3.97127267 0.1956859 -3.97127267 0.1956859 0 0 Z " fill="#040805" transform="translate(243.6953125,245.8671875)"/>
<path d="M0 0 C0.886875 -0.00257813 1.77375 -0.00515625 2.6875 -0.0078125 C4.0796875 0.00378906 4.0796875 0.00378906 5.5 0.015625 C6.428125 0.00789062 7.35625 0.00015625 8.3125 -0.0078125 C9.6428125 -0.00394531 9.6428125 -0.00394531 11 0 C11.8146875 0.00225586 12.629375 0.00451172 13.46875 0.00683594 C15.5 0.265625 15.5 0.265625 17.5 2.265625 C17.13318342 5.20015761 16.63562754 6.12999746 14.5 8.265625 C12.45288086 8.50854492 12.45288086 8.50854492 9.96484375 8.49609375 C9.07345703 8.49416016 8.18207031 8.49222656 7.26367188 8.49023438 C5.8647168 8.47186523 5.8647168 8.47186523 4.4375 8.453125 C3.03274414 8.4521582 3.03274414 8.4521582 1.59960938 8.45117188 C-5.35980776 8.40581724 -5.35980776 8.40581724 -6.5 7.265625 C-6.6875 4.828125 -6.6875 4.828125 -6.5 2.265625 C-4.05013068 -0.18424432 -3.362922 0.00931189 0 0 Z " fill="#030604" transform="translate(405.5,248.734375)"/>
<path d="M0 0 C1.23157837 0.00616333 1.23157837 0.00616333 2.48803711 0.01245117 C3.37942383 0.01438477 4.27081055 0.01631836 5.18920898 0.01831055 C6.1218457 0.03055664 7.05448242 0.04280273 8.01538086 0.05541992 C9.42013672 0.05638672 9.42013672 0.05638672 10.85327148 0.05737305 C17.81268862 0.10272768 17.81268862 0.10272768 18.95288086 1.24291992 C18.99368869 3.24250356 18.99542442 5.24337246 18.95288086 7.24291992 C16.56849377 8.43511347 15.07632084 8.37208015 12.41772461 8.37573242 C11.52633789 8.37702148 10.63495117 8.37831055 9.71655273 8.37963867 C8.78391602 8.37577148 7.8512793 8.3719043 6.89038086 8.36791992 C5.95387695 8.37178711 5.01737305 8.3756543 4.05249023 8.37963867 C3.16239258 8.37834961 2.27229492 8.37706055 1.35522461 8.37573242 C0.12533813 8.37404053 0.12533813 8.37404053 -1.12939453 8.37231445 C-3.04711914 8.24291992 -3.04711914 8.24291992 -4.04711914 7.24291992 C-4.23461914 4.80541992 -4.23461914 4.80541992 -4.04711914 2.24291992 C-2.04711914 0.24291992 -2.04711914 0.24291992 0 0 Z " fill="#010302" transform="translate(363.047119140625,249.757080078125)"/>
<path d="M0 0 C1.40958984 -0.00193359 1.40958984 -0.00193359 2.84765625 -0.00390625 C3.83636719 -0.00003906 4.82507813 0.00382813 5.84375 0.0078125 C7.32681641 0.00201172 7.32681641 0.00201172 8.83984375 -0.00390625 C9.77957031 -0.00261719 10.71929687 -0.00132812 11.6875 0 C12.55568359 0.00112793 13.42386719 0.00225586 14.31835938 0.00341797 C16.34375 0.1328125 16.34375 0.1328125 17.34375 1.1328125 C17.38455783 3.13239614 17.38629356 5.13326504 17.34375 7.1328125 C13.8077104 8.9008323 9.73803745 8.31746163 5.84375 8.3203125 C4.96332031 8.33255859 4.08289063 8.34480469 3.17578125 8.35742188 C2.33402344 8.35935547 1.49226563 8.36128906 0.625 8.36328125 C-0.14779297 8.36739014 -0.92058594 8.37149902 -1.71679688 8.37573242 C-3.65625 8.1328125 -3.65625 8.1328125 -5.65625 6.1328125 C-5.84375 3.5703125 -5.84375 3.5703125 -5.65625 1.1328125 C-4.03424485 -0.48919265 -2.23601969 0.002905 0 0 Z " fill="#020503" transform="translate(324.65625,249.8671875)"/>
<path d="M0 0 C4.72224516 1.53472968 9.35855331 3.23945126 14 5 C14 6.32 14 7.64 14 9 C8.21408489 9.10477512 2.70690634 8.99250545 -3 8 C-2.45276317 4.62537285 -1.9451 2.91765 0 0 Z " fill="#00756A" transform="translate(177,264)"/>
</svg>
